<svg width="54" height="70" viewBox="0 0 54 70" fill="none" xmlns="http://www.w3.org/2000/svg">
<rect width="12.5455" height="63.25" rx="2" transform="matrix(-1 0 0 1 46 0)" fill="#74F9D9"/>
<rect width="10.3688" height="46" rx="2" transform="matrix(4.40726e-08 -1 -1 -4.33531e-08 46 10.3688)" fill="#74F9D9"/>
<rect width="10.3688" height="39.7273" rx="2" transform="matrix(4.40726e-08 -1 -1 -4.33531e-08 46 31.1066)" fill="#74F9D9"/>
<rect width="12.8182" height="65.1591" rx="2" transform="matrix(-1 0 0 1 54 4)" fill="#E83D59"/>
<rect width="10.6818" height="47" rx="2" transform="matrix(4.37114e-08 -1 -1 -4.37114e-08 54 14.6818)" fill="#E83D59"/>
<rect width="10.6818" height="40.5909" rx="2" transform="matrix(4.37114e-08 -1 -1 -4.37114e-08 54 36.0454)" fill="#E83D59"/>
</svg>
